0
SECTION
2
HEADER
9
$ACADVER
1
AC1009
9
$INSUNITS
70
4
0
ENDSEC
0
SECTION
2
TABLES
0
TABLE
2
LAYER
70
1
0
LAYER
2
0
70
0
62
7
6
CONTINUOUS
0
ENDTAB
0
ENDSEC
0
SECTION
2
BLOCKS
0
ENDSEC
0
SECTION
2
ENTITIES
0
POLYLINE
8
0
66
1
70
1
0
VERTEX
8
0
10
1.98
20
8.10
30
0.0
0
VERTEX
8
0
10
7.02
20
8.10
30
0.0
0
VERTEX
8
0
10
8.10
20
7.02
30
0.0
0
VERTEX
8
0
10
8.10
20
1.98
30
0.0
0
VERTEX
8
0
10
7.02
20
0.90
30
0.0
0
VERTEX
8
0
10
1.98
20
0.90
30
0.0
0
VERTEX
8
0
10
0.90
20
1.98
30
0.0
0
VERTEX
8
0
10
0.90
20
7.02
30
0.0
0
SEQEND
8
0
0
POLYLINE
8
0
66
1
70
1
0
VERTEX
8
0
10
2.16
20
7.56
30
0.0
0
VERTEX
8
0
10
6.84
20
7.56
30
0.0
0
VERTEX
8
0
10
7.56
20
6.84
30
0.0
0
VERTEX
8
0
10
7.56
20
2.16
30
0.0
0
VERTEX
8
0
10
6.84
20
1.44
30
0.0
0
VERTEX
8
0
10
2.16
20
1.44
30
0.0
0
VERTEX
8
0
10
1.44
20
2.16
30
0.0
0
VERTEX
8
0
10
1.44
20
6.84
30
0.0
0
SEQEND
8
0
0
POLYLINE
8
0
66
1
70
1
0
VERTEX
8
0
10
3.27
20
2.60
30
0.0
0
VERTEX
8
0
10
3.73
20
3.00
30
0.0
0
VERTEX
8
0
10
2.43
20
4.50
30
0.0
0
VERTEX
8
0
10
1.97
20
4.10
30
0.0
0
SEQEND
8
0
0
POLYLINE
8
0
66
1
70
1
0
VERTEX
8
0
10
3.75
20
2.63
30
0.0
0
VERTEX
8
0
10
3.25
20
2.97
30
0.0
0
VERTEX
8
0
10
6.05
20
6.97
30
0.0
0
VERTEX
8
0
10
6.55
20
6.63
30
0.0
0
SEQEND
8
0
0
ENDSEC
0
EOF
